<?xml version="1.0" encoding="UTF-8"?>
<svg width="32px" height="32px" viewBox="0 0 32 32" version="1.1" xmlns="http://www.w3.org/2000/svg" xmlns:xlink="http://www.w3.org/1999/xlink">
    <title>coin/DOT</title>
    <g id="coin/DOT" stroke="none" stroke-width="1" fill="none" fill-rule="evenodd">
        <g id="Polkadot_symbol_color/member" transform="translate(6.053465, 2.687129)" fill-rule="nonzero" stroke="#FFFFFF">
            <path d="M10.1049505,-0.5 C13.0261704,-0.5 15.6803492,0.687964098 17.6027116,2.61032656 C19.5205094,4.52812431 20.709901,7.17663107 20.709901,10.1049505 C20.709901,12.8846676 19.6389298,15.4140361 17.8881917,17.3052346 C16.1225698,19.2125109 13.6654713,20.4703936 10.9120481,20.6821529 C10.9120481,20.6821529 9.69570167,20.7582733 9.38516979,20.8100286 C8.74224468,20.8937018 8.16442313,21.1741126 7.70974323,21.5963154 C7.26251376,22.0115999 6.93438617,22.5644486 6.79731721,23.2040777 C6.79731693,23.2040789 6.37407201,25.1325928 6.34765241,25.2911104 C6.23440564,25.8221135 5.92660332,26.2405204 5.51795436,26.5041649 C5.10936372,26.7677718 4.60068126,26.8760653 4.09226516,26.767119 C3.58382711,26.658168 3.16542015,26.3503657 2.90177566,25.9417167 C2.6381688,25.5331261 2.52987526,25.0244436 2.63882157,24.5160275 C2.81139404,23.6782396 5.82003509,9.65254272 5.82000968,9.6526612 C5.92896069,9.14422315 6.23676302,8.72581619 6.64541197,8.4621717 C7.05400261,8.19856484 7.56268508,8.0902713 8.07110118,8.1992176 C8.57953923,8.30816862 8.99794619,8.61597094 9.26159067,9.02461989 C9.52519754,9.43321054 9.63349108,9.941893 9.52429021,10.4514901 L9.52429021,10.4514901 L8.21560004,16.4873268 L8.08820791,17.1101328 C9.05654338,16.9596733 10.5044166,16.8770367 10.5047449,16.8770182 C12.2899464,16.7771468 13.8933421,15.9820102 15.0485818,14.759344 C16.1972721,13.5436096 16.9029703,11.9047889 16.9029703,10.1049505 C16.9029703,8.1699208 16.0889703,6.42281491 14.7847334,5.18674372 C13.4875768,3.95738269 11.7053557,3.23369231 9.75548523,3.33304834 C7.99934952,3.42023238 6.41191272,4.18725596 5.25096638,5.3706144 C4.09126407,6.55270478 3.35649689,8.15097151 3.30670128,9.90623367 C3.28184974,10.7263345 3.40575283,11.5465138 3.67913466,12.3169535 C3.84535519,12.8333498 3.79185819,13.3533889 3.5774526,13.7886973 C3.35945192,14.2313047 2.97567021,14.5856513 2.47874716,14.7512618 C1.97655123,14.9126819 1.45651204,14.8591849 1.02120373,14.6447793 C0.57859628,14.4267786 0.224249733,14.0429969 0.059136431,13.5476123 C-0.304722138,12.4280475 -0.5,11.2804255 -0.5,10.1049505 C-0.5,7.17663107 0.689391612,4.52812431 2.60718936,2.61032656 C4.52955182,0.687964098 7.18373058,-0.5 10.1049505,-0.5 Z" id="Path" fill="#000000"></path>
            <path d="M9.32372613,23.1636496 C9.77511341,22.8687432 10.341129,22.749059 10.9051791,22.8651935 C11.4828324,22.9807241 11.9441553,23.3112749 12.2343216,23.755407 C12.5250497,24.200399 12.6446657,24.7618241 12.5288659,25.3408227 C12.4139987,25.9151589 12.0794822,26.3754557 11.6346897,26.6660534 C11.1833024,26.9609598 10.6172868,27.080644 10.0532367,26.9645095 C9.4789005,26.8496423 9.01860372,26.5151257 8.72800599,26.0703333 C8.43309963,25.618946 8.31341543,25.0529304 8.42954991,24.4888803 C8.54441715,23.9145441 8.87893368,23.4542473 9.32372613,23.1636496 Z" id="Path" stroke-width="0.8" fill="#E6007A"></path>
        </g>
    </g>
</svg>