<svg xmlns="http://www.w3.org/2000/svg" xmlns:xlink="http://www.w3.org/1999/xlink" width="40" height="30" viewBox="0 0 40 30">
    <defs>
        <path id="a" d="M0 0h24v18H0z"/>
    </defs>
    <g fill="none" fill-rule="evenodd">
        <g transform="translate(16 1)">
            <use fill="#FFF" xlink:href="#a"/>
            <path stroke="#C6C6C6" d="M.5.5h23v17H.5z"/>
        </g>
        <path fill="#BC002D" d="M28 5a5 5 0 1 1 0 10 5 5 0 0 1 0-10"/>
        <g>
            <path d="M0 3h28v28H0z"/>
            <path fill="#FFF" d="M0 7h28v20H0z"/>
            <path fill="#FCB135" d="M2 17c0-4.171 2.142-7.849 5.381-10H0v20h7.381C4.142 24.849 2 21.172 2 17M28 7h-7.381C23.858 9.151 26 12.829 26 17c0 4.172-2.142 7.849-5.381 10H28V7z"/>
            <path fill="#FCB135" d="M4 17c0 5.522 4.478 10 10 10s10-4.478 10-10c0-5.523-4.478-10-10-10S4 11.477 4 17"/>
            <path fill="#FFF" d="M16.428 19.42c-.251.202-.783.437-1.315.57-.534.136-1.343.26-1.343.26l-.46-2.605s.765-.176 1.375-.243c.608-.066 1.14-.002 1.389.072.247.073.688.253.793.849.106.597-.188.894-.44 1.097m-3.33-2.985l-.414-2.346s.38-.102.762-.163c.382-.062.719-.11 1.246-.044.526.065.887.388.977.829.089.44-.052.77-.36 1.018-.307.247-.76.432-1.2.527-.44.096-1.011.179-1.011.179m5.12-.153c-.47-.24-1.082-.26-1.082-.26s.448-.378.602-.704c.153-.326.176-.792.152-1.028-.024-.236-.156-1.22-1.017-1.648-.665-.331-1.37-.385-2.286-.281l-.347-1.972-1.216.215.343 1.948-.925.163-.344-1.948-1.215.214.344 1.948-2.391.422.222 1.262.703-.124c.19-.034.536-.073.71.064.173.136.213.217.269.532l.887 5.029c.02.119.024.27-.061.386-.085.114-.183.154-.428.198l-.727.128.008 1.504 2.39-.422.344 1.943 1.215-.214-.343-1.943.926-.164.342 1.944 1.216-.215-.35-1.975c.313-.073.6-.148.768-.201.339-.106 1.106-.336 1.749-.976.643-.64.666-1.47.54-2.28-.124-.81-.528-1.306-.998-1.545"/>
        </g>
    </g>
</svg>
