<?xml version="1.0" encoding="UTF-8"?>
<svg width="32px" height="32px" viewBox="0 0 32 32" version="1.1" xmlns="http://www.w3.org/2000/svg" xmlns:xlink="http://www.w3.org/1999/xlink">
    <title>coin/QTUM</title>
    <g id="coin/QTUM" stroke="none" stroke-width="1" fill="none" fill-rule="evenodd">
        <g id="qtum" transform="translate(2.000000, 3.000000)" fill="#2596CC">
            <path d="M23.5896375,13.9297438 C23.9187,13.824525 24.1730125,13.5620875 24.2672625,13.2285563 L24.5292938,13.2285563 L25.1480125,13.22815 C25.213825,13.4893688 25.3771375,13.7099625 25.59895,13.8497125 L23.9174813,19.024525 L23.5896375,13.9297438 Z M21.203325,18.979025 C21.2122625,18.9245875 21.2199813,18.8697438 21.2199813,18.813275 C21.2199813,18.5085875 21.0859188,18.2372125 20.8758875,18.0474938 L22.0714813,15.7895563 L23.042825,13.9549313 C23.0570438,13.9581813 23.0716688,13.9618375 23.0862938,13.9646812 L23.471825,19.960525 L21.203325,18.979025 Z M18.0967313,24.1282437 C18.089825,24.12215 18.0825125,24.1160562 18.0752,24.1103687 L18.1406063,23.9633062 L20.0036688,19.8297125 C20.0629813,19.840275 20.1231063,19.8479937 20.1852625,19.8479937 C20.51595,19.8479937 20.806825,19.6903687 20.9961375,19.4490562 L23.23945,20.4110562 L18.0967313,24.1282437 Z M17.615325,23.8999313 C17.5560125,23.889775 17.4958875,23.88165 17.4341375,23.88165 C17.2976375,23.88165 17.1680438,23.9096813 17.0486063,23.9576188 L15.9570125,22.4553063 L14.3832,20.2899938 C14.5071062,20.1417125 14.5887625,19.9597125 14.6135438,19.7582125 L18.1556375,19.3190563 L19.22245,19.1866188 C19.2862313,19.3515563 19.3922625,19.4929313 19.5255125,19.60465 L17.6807313,23.7553063 L17.615325,23.8999313 Z M16.4335438,24.6644937 L10.7501063,24.6644937 C10.7115125,24.5117438 10.6387938,24.3744313 10.5408875,24.257025 L13.2067,20.5898062 C13.3257313,20.6373375 13.455325,20.6649625 13.591825,20.6649625 C13.728325,20.6649625 13.8575125,20.6373375 13.9765438,20.5898062 L16.6423563,24.257025 C16.54445,24.3744313 16.4717313,24.5117438 16.4335438,24.6644937 L16.4335438,24.6644937 Z M10.1346375,23.9576188 C10.0152,23.9096812 9.8860125,23.88165 9.7495125,23.88165 C9.68695,23.88165 9.62723125,23.889775 9.56791875,23.8999313 L9.152325,22.97815 L7.63945,19.6217125 C7.7832625,19.5079625 7.8962,19.3600875 7.9636375,19.187025 L9.0800125,19.32515 L12.5697,19.7582125 C12.5948875,19.9597125 12.6765438,20.1417125 12.8000438,20.2899938 L12.3495125,20.9107438 L10.1346375,23.9576188 Z M9.08529375,24.12865 L4.38823125,20.7539313 C4.43941875,20.6312438 4.4682625,20.496775 4.4682625,20.3558063 C4.4682625,20.2989313 4.4601375,20.2444938 4.45160625,20.1900563 L6.18304375,19.440525 C6.37235625,19.6867125 6.66648125,19.8479938 7.000825,19.8479938 C7.06216875,19.8479938 7.12148125,19.840275 7.179575,19.8297125 L9.10845,24.1099625 C9.10073125,24.11565 9.0930125,24.1225562 9.08529375,24.12865 L9.08529375,24.12865 Z M3.75448125,19.3767437 L4.12823125,13.9927125 C4.1481375,13.9890563 4.166825,13.9849938 4.18591875,13.980525 L6.168825,17.77165 L6.31223125,18.0454625 C6.10098125,18.2351813 5.96610625,18.5073688 5.96610625,18.813275 C5.96610625,18.8681188 5.973825,18.9213375 5.98195,18.97415 L4.2440125,19.7196188 C4.11929375,19.560775 3.95029375,19.4409313 3.75448125,19.3767437 L3.75448125,19.3767437 Z M2.9456375,12.7235875 L2.67141875,12.7235875 L2.04416875,12.7235875 C1.9836375,12.453025 1.81829375,12.2239 1.5920125,12.0784625 L3.27104375,6.91015 L3.62448125,11.9972125 C3.2901375,12.1073063 3.03216875,12.3794937 2.9456375,12.7235875 L2.9456375,12.7235875 Z M3.27104375,19.0415875 L1.576575,13.8269625 C1.79473125,13.6920875 1.9560125,13.4804313 2.02710625,13.22815 L2.67141875,13.2285563 L2.9456375,13.2285563 C3.03216875,13.5730563 3.2901375,13.84565 3.62448125,13.9549313 L3.27104375,19.0415875 Z M4.2497,6.2252125 L5.9827625,6.9775875 C5.973825,7.032025 5.96610625,7.087275 5.96610625,7.14455625 C5.96610625,7.451275 6.10179375,7.7234625 6.31385625,7.91236875 L4.18673125,11.9724313 C4.16723125,11.9679625 4.14854375,11.9630875 4.12823125,11.9594313 L3.75448125,6.57499375 C3.9531375,6.5095875 4.12416875,6.3877125 4.2497,6.2252125 L4.2497,6.2252125 Z M9.08773125,1.82430625 C9.0946375,1.8304 9.10195,1.83649375 9.1092625,1.84218125 L7.1812,6.1277125 C7.1227,6.11755625 7.062575,6.10943125 7.000825,6.10943125 C6.66729375,6.10943125 6.373575,6.27030625 6.18466875,6.51486875 L4.45160625,5.76249375 C4.4601375,5.7084625 4.4682625,5.6532125 4.4682625,5.59593125 C4.4682625,5.46065 4.4406375,5.332275 4.3935125,5.21365 L9.08773125,1.82430625 Z M9.7495125,2.0700875 C9.8860125,2.0700875 10.0152,2.04205625 10.1346375,1.99411875 L12.7894813,5.6467125 C12.6724813,5.79215 12.5948875,5.96765 12.5697,6.16224375 L7.96160625,6.76430625 C7.89416875,6.5940875 7.78204375,6.44865 7.641075,6.33693125 L9.56873125,2.05180625 C9.6276375,2.0619625 9.68735625,2.0700875 9.7495125,2.0700875 L9.7495125,2.0700875 Z M10.7501063,1.28724375 L16.4335438,1.28724375 C16.4717313,1.43755625 16.5424188,1.5728375 16.6378875,1.689025 L13.9546063,5.3274 C13.8412625,5.28474375 13.7197938,5.2583375 13.591825,5.2583375 C13.4557313,5.2583375 13.3261375,5.286775 13.2071063,5.33430625 L10.5429188,1.692275 C10.6396063,1.575275 10.7119188,1.438775 10.7501063,1.28724375 L10.7501063,1.28724375 Z M17.0486063,1.99411875 C17.1680437,2.04205625 17.2976375,2.0700875 17.4341375,2.0700875 C17.4958875,2.0700875 17.5560125,2.0619625 17.615325,2.0514 L17.8927938,2.66686875 L19.5466375,6.33611875 C19.4056688,6.447025 19.2935438,6.59165 19.2257,6.76065 L14.6135438,6.16468125 C14.5891687,5.969275 14.5111687,5.7929625 14.3937625,5.64711875 L17.0486063,1.99411875 Z M18.096325,1.82430625 L22.7897312,5.21365 C22.7430125,5.332275 22.7153875,5.46065 22.7153875,5.59593125 C22.7153875,5.6524 22.7231062,5.70724375 22.7320438,5.76168125 L20.9989812,6.51161875 C20.8092625,6.26868125 20.5171687,6.10943125 20.1852625,6.10943125 C20.1239188,6.10943125 20.0646063,6.11755625 20.0065125,6.1277125 L18.1800125,2.07536875 L18.0743875,1.84218125 C18.0817,1.8360875 18.0890125,1.8304 18.096325,1.82430625 L18.096325,1.82430625 Z M18.0882,13.7721188 C18.2559813,13.6335875 18.3798875,13.4463062 18.4347313,13.22815 L20.153575,13.2285563 L22.2835437,13.2285563 C22.3383875,13.4227438 22.4468562,13.5925563 22.5947313,13.7225563 L20.4306375,17.81065 C20.3514188,17.7915563 20.2701687,17.77815 20.1852625,17.77815 C20.1170125,17.77815 20.0503875,17.7854625 19.9862,17.7980563 L18.0882,13.7721188 Z M17.1526063,13.967525 C17.2427938,13.9931188 17.3354188,14.0109938 17.4341375,14.0109938 C17.5019813,14.0109938 17.5682,14.0036813 17.6327938,13.9910875 L19.5312,18.0174313 C19.3317313,18.18115 19.1968562,18.4163688 19.1631375,18.6857125 L14.5546375,19.2564938 C14.5002,19.1167438 14.417325,18.9912125 14.3112938,18.8884313 L17.1526063,13.967525 Z M10.4702,13.717275 C10.6054813,13.58565 10.7021688,13.4170563 10.7501063,13.22815 L16.4335438,13.22815 C16.481075,13.4170563 16.5777625,13.58565 16.7130438,13.717275 L13.8725438,18.6389938 C13.7827625,18.6129938 13.6897313,18.5951188 13.591825,18.5951188 C13.4935125,18.5951188 13.4004812,18.6129938 13.3107,18.6389938 L10.4702,13.717275 Z M9.55045,13.9910875 C9.61545,14.0036813 9.68166875,14.0109938 9.7495125,14.0109938 C9.84741875,14.0109938 9.94045,13.9931188 10.0306375,13.967525 L12.87195,18.8884313 C12.7659188,18.9912125 12.6830438,19.1167438 12.6290125,19.2564938 L8.02335625,18.6861188 C7.9896375,18.4155563 7.85395,18.1799313 7.65285625,18.0158063 L9.55045,13.9910875 Z M4.9460125,13.2285563 L6.9147,13.2285563 L8.74891875,13.22815 C8.8037625,13.4463062 8.9272625,13.6335875 9.09504375,13.7721188 L7.19745,17.7980563 C7.134075,17.7854625 7.0682625,17.77815 7.000825,17.77815 C6.9171375,17.77815 6.8367,17.7907438 6.75829375,17.8098375 L4.63279375,13.7453063 C4.784325,13.610025 4.894825,13.4320875 4.9460125,13.2285563 L4.9460125,13.2285563 Z M9.09504375,12.180025 C8.9272625,12.31815 8.8037625,12.5062437 8.749325,12.7235875 L6.9155125,12.7235875 L4.9460125,12.7235875 C4.894825,12.5208687 4.78473125,12.3433375 4.63360625,12.2080562 L6.75991875,8.1484 C6.83791875,8.16668125 6.91754375,8.17968125 7.000825,8.17968125 C7.069075,8.17968125 7.1357,8.1719625 7.1998875,8.15936875 L9.09504375,12.180025 Z M10.0286063,11.9842125 C9.938825,11.959025 9.8470125,11.94115 9.7495125,11.94115 C9.6812625,11.94115 9.61504375,11.9488688 9.55004375,11.9610562 L7.6548875,7.9404 C7.85598125,7.7754625 7.9912625,7.5382125 8.0237625,7.2668375 L12.6302313,6.6720875 C12.685075,6.811025 12.76795,6.934525 12.8731688,7.03649375 L10.0286063,11.9842125 Z M16.7130438,12.235275 C16.5781687,12.3664938 16.4814813,12.5346813 16.43395,12.7235875 L10.7501062,12.7235875 C10.7017625,12.534275 10.6046687,12.3656812 10.4689812,12.2344625 L13.3245125,7.28918125 C13.4102312,7.3123375 13.4983875,7.3285875 13.591825,7.3285875 C13.68445,7.3285875 13.7734188,7.3123375 13.8591375,7.28918125 L16.7130438,12.235275 Z M19.9890438,8.159775 C20.0524188,8.1719625 20.1182313,8.17968125 20.1852625,8.17968125 C20.2709813,8.17968125 20.3530438,8.16586875 20.4326688,8.14636875 L22.5744187,12.1914 C22.4228875,12.3315563 22.3127938,12.5151813 22.2664813,12.7235875 L20.403825,12.7235875 L18.434325,12.7235875 C18.382325,12.5164 18.2673562,12.3356188 18.1113563,12.1991188 L19.9890438,8.159775 Z M17.6323875,11.9610562 C17.5677938,11.9488688 17.5019813,11.94115 17.4341375,11.94115 C17.335825,11.94115 17.2427938,11.9594313 17.1530125,11.9846188 L14.300325,7.04461875 C14.4047313,6.94630625 14.4900438,6.8280875 14.5461063,6.69361875 L19.1627313,7.26643125 C19.194825,7.53699375 19.3292938,7.77343125 19.5291688,7.938775 L17.6323875,11.9610562 Z M23.4340438,6.57661875 L23.08995,11.9326188 C23.0651688,11.9370875 23.0412,11.9435875 23.0176375,11.9500875 L20.8779188,7.90830625 C21.0867312,7.71899375 21.2199813,7.44843125 21.2199813,7.14455625 C21.2199813,7.08565 21.2122625,7.0295875 21.2029188,6.973525 L21.4812,6.85286875 L22.9331375,6.2244 C23.0594813,6.38893125 23.2325438,6.51161875 23.4340438,6.57661875 L23.4340438,6.57661875 Z M23.9174813,6.92761875 L25.5985438,12.1016188 C25.3767313,12.2413688 25.2134188,12.4623688 25.1476063,12.7235875 L24.5292938,12.7235875 L24.284325,12.7235875 C24.2047,12.365275 23.9382,12.0804938 23.5932938,11.968775 L23.9174813,6.92761875 Z M27.651325,22.1973375 C27.2865125,22.1973375 26.955825,22.333025 26.695825,22.54915 L24.0413875,20.275775 L26.07995,14.0036813 C26.1031063,14.0053063 26.1246375,14.0105875 26.1482,14.0105875 C26.7197938,14.0105875 27.183325,13.5474625 27.183325,12.9754625 C27.183325,12.4038688 26.7197938,11.9407438 26.1482,11.9407438 C26.1246375,11.9407438 26.1027,11.9456188 26.0795438,11.9472438 L24.2997625,6.47018125 C24.5902313,6.2869625 24.7852313,5.9652125 24.7852313,5.59593125 C24.7852313,5.0243375 24.3217,4.56080625 23.7505125,4.56080625 C23.4966063,4.56080625 23.2678875,4.6554625 23.088325,4.8065875 L18.3941063,1.4168375 C18.4412313,1.29861875 18.4692625,1.17024375 18.4692625,1.0349625 C18.4692625,0.46336875 18.0057313,0.00024375 17.4341375,0.00024375 C16.9498875,0.00024375 16.5464812,0.333775 16.4335437,0.78268125 L10.7501063,0.78268125 C10.6363562,0.333775 10.2333562,0.00024375 9.7495125,0.00024375 C9.17791875,0.00024375 8.7143875,0.46336875 8.7143875,1.0349625 C8.7143875,1.17024375 8.7420125,1.29861875 8.7891375,1.4168375 L4.095325,4.8065875 C3.91535625,4.65586875 3.6866375,4.56080625 3.43354375,4.56080625 C2.86195,4.56080625 2.3980125,5.0243375 2.3980125,5.59593125 C2.3980125,5.9652125 2.59260625,6.2869625 2.88348125,6.47018125 L1.11223125,11.92165 C1.08623125,11.9196188 1.06185625,11.9139313 1.03504375,11.9139313 C0.46345,11.9139313 0.000325,12.3774625 0.000325,12.94865 C0.000325,13.5202438 0.46345,13.983775 1.03504375,13.983775 C1.0557625,13.983775 1.07485625,13.9789 1.09516875,13.9776813 L2.88348125,19.4819625 C2.59260625,19.664775 2.3980125,19.986525 2.3980125,20.3558063 C2.3980125,20.9274 2.86195,21.390525 3.43354375,21.390525 C3.68054375,21.390525 3.9043875,21.3007438 4.082325,21.1557125 L8.788325,24.5369313 C8.74160625,24.6547438 8.7143875,24.7823063 8.7143875,24.916775 C8.7143875,25.4883688 9.17791875,25.9519 9.7495125,25.9519 C10.2333562,25.9519 10.6363562,25.6179625 10.7501063,25.1690563 L16.4335437,25.1690563 C16.5464812,25.6179625 16.9498875,25.9519 17.4341375,25.9519 C18.0057313,25.9519 18.4692625,25.4883688 18.4692625,24.916775 C18.4692625,24.7827125 18.4416375,24.6555563 18.395325,24.53815 L23.735075,20.6779625 L26.36595,22.9314313 C26.2306688,23.1573063 26.1482,23.4177125 26.1482,23.7000563 C26.1482,24.5304313 26.8213563,25.202775 27.651325,25.202775 C28.4812938,25.202775 29.1540438,24.5304313 29.1540438,23.7000563 C29.1540438,22.8700875 28.4812938,22.1973375 27.651325,22.1973375 L27.651325,22.1973375 Z" id="Fill-1"></path>
        </g>
    </g>
</svg>