<?xml version="1.0" encoding="UTF-8"?>
<svg width="32px" height="32px" viewBox="0 0 32 32" version="1.1" xmlns="http://www.w3.org/2000/svg" xmlns:xlink="http://www.w3.org/1999/xlink">
    <title>coin/ENJ</title>
    <defs>
        <radialGradient cx="19.7412786%" cy="16.039267%" fx="19.7412786%" fy="16.039267%" r="55.5490769%" id="radialGradient-1">
            <stop stop-color="#77FFFF" offset="0%"></stop>
            <stop stop-color="#87E4FF" offset="39.39%"></stop>
            <stop stop-color="#6273FF" offset="86.06%"></stop>
            <stop stop-color="#9468FF" offset="100%"></stop>
        </radialGradient>
        <radialGradient cx="50.2179863%" cy="47.8261725%" fx="50.2179863%" fy="47.8261725%" r="55.4016359%" gradientTransform="translate(0.502180,0.478262),scale(0.823967,1.000000),rotate(-6.061789),translate(-0.502180,-0.478262)" id="radialGradient-2">
            <stop stop-color="#00FFFF" offset="49.7%"></stop>
            <stop stop-color="#00F4FF" stop-opacity="0" offset="100%"></stop>
        </radialGradient>
        <linearGradient x1="63.6359486%" y1="50.5423513%" x2="99.692646%" y2="72.1325705%" id="linearGradient-3">
            <stop stop-color="#5A27ED" offset="0%"></stop>
            <stop stop-color="#AB37F4" offset="100%"></stop>
        </linearGradient>
        <linearGradient x1="3.95741064%" y1="47.7499843%" x2="87.7197908%" y2="54.0449926%" id="linearGradient-4">
            <stop stop-color="#7618F4" offset="2.054068e-05%"></stop>
            <stop stop-color="#575FF8" offset="50.36%"></stop>
            <stop stop-color="#09FFFF" offset="100%"></stop>
        </linearGradient>
        <linearGradient x1="16.9659525%" y1="49.9741991%" x2="91.7092222%" y2="52.3022209%" id="linearGradient-5">
            <stop stop-color="#7F4CFF" offset="2.054068e-05%"></stop>
            <stop stop-color="#3095FF" offset="100%"></stop>
        </linearGradient>
        <linearGradient x1="13.9711494%" y1="45.8124551%" x2="79.0666356%" y2="56.9875352%" id="linearGradient-6">
            <stop stop-color="#7F52FF" offset="2.054068e-05%"></stop>
            <stop stop-color="#3096FF" offset="100%"></stop>
        </linearGradient>
        <linearGradient x1="81.042151%" y1="69.2111375%" x2="57.4931094%" y2="50.6857508%" id="linearGradient-7">
            <stop stop-color="#FFFFFF" offset="0%"></stop>
            <stop stop-color="#FBFFFF" offset="15.73%"></stop>
            <stop stop-color="#EFFFFF" offset="31.91%"></stop>
            <stop stop-color="#DAFFFF" offset="48.29%"></stop>
            <stop stop-color="#BDFFFE" offset="64.81%"></stop>
            <stop stop-color="#98FFFE" offset="81.44%"></stop>
            <stop stop-color="#6BFFFD" offset="97.95%"></stop>
            <stop stop-color="#65FFFD" offset="100%"></stop>
        </linearGradient>
        <linearGradient x1="12.5920634%" y1="92.6457917%" x2="69.1635944%" y2="1.39012627%" id="linearGradient-8">
            <stop stop-color="#FFFFFF" stop-opacity="0" offset="0%"></stop>
            <stop stop-color="#E6FFFF" offset="51.54%"></stop>
            <stop stop-color="#CEFFFF" stop-opacity="0.5" offset="100%"></stop>
        </linearGradient>
        <linearGradient x1="0.00381533766%" y1="50.0057328%" x2="99.9854175%" y2="50.0057328%" id="linearGradient-9">
            <stop stop-color="#FFFFFF" offset="0%"></stop>
            <stop stop-color="#FFFFFF" stop-opacity="0.3062" offset="86.72%"></stop>
            <stop stop-color="#FFFFFF" stop-opacity="0.2" offset="100%"></stop>
        </linearGradient>
    </defs>
    <g id="coin/ENJ" stroke="none" stroke-width="1" fill="none" fill-rule="evenodd">
        <g id="enjin-sphere" transform="translate(2.000000, 2.000000)" fill-rule="nonzero">
            <g id="Group">
                <g id="Path">
                    <path d="M27.9922865,14 C27.9922865,21.7289256 21.7289256,28 13.9922865,28 C6.27107438,28 0,21.7366391 0,14 C0,6.27107438 6.27107438,0.00771349862 14,0.00771349862 C21.7289256,0.00771349862 27.9922865,6.27107438 27.9922865,14 Z" fill="url(#radialGradient-1)"></path>
                    <path d="M23.1790634,9.61101928 C25.107438,11.4853994 26.5730028,13.8225895 26.8738292,16.6225895 C27.5294766,22.7856749 22.7316804,28.3548209 16.1597796,29.0490358 C9.58787879,29.7432507 3.73333333,25.3157025 3.07768595,19.1526171 C2.42203857,12.9895317 6.1399449,13.4060606 12.7118457,12.7041322 C16.2986226,12.3261708 22.0143251,8.47713499 23.1790634,9.61101928 Z" fill="url(#radialGradient-2)"></path>
                    <path d="M23.8501377,10.8143251 L23.8347107,10.6369146 L21.5438017,10.6369146 L23.8501377,8.66225895 L23.8424242,8.56969697 C23.7498623,6.29421488 22.7008264,4.82093664 22.662259,4.75922865 L22.6082645,4.65123967 L10.2358127,4.65123967 C9.06336088,4.65123967 6.79559229,5.0137741 5.12947658,6.88044077 C4.40440771,7.69035813 2.84628099,10.1355372 2.86159427,12.8738292 C2.86942149,14.4165289 3.02369146,15.6121212 3.60220386,16.95427 C3.8953168,17.6330579 4.22699725,18.2578512 4.58953168,18.8055096 C5.76198347,20.9112948 7.04242424,22.3768595 8.3922865,23.1636364 C9.5338843,23.8269972 10.5520661,23.9195592 11.3928375,23.9195592 L18.4121212,23.9195592 L18.4506887,23.8964187 C18.4738292,23.8887052 20.7724518,22.6853994 22.8396694,21.4280992 L22.9013774,21.3895317 L22.9245179,21.3278237 C22.9322314,21.3046832 22.9399449,21.2892562 22.9476584,21.2661157 C22.9630854,21.2275482 22.9785124,21.1889807 22.9939394,21.1426997 C23.2484848,20.4099174 23.4644628,18.8363636 23.5647383,17.9724518 C23.6033058,17.6561983 23.6341598,17.4479339 23.6341598,17.4479339 L23.6573003,17.2319559 L23.6495868,17.2319559 L23.6650138,17.0545455 L21.2121212,17.0545455 L23.8347107,15.0644628 L23.8424242,14.9796143 C24.0121212,13.0435262 23.8501377,10.8374656 23.8501377,10.8143251 Z" fill="url(#linearGradient-3)"></path>
                    <g transform="translate(3.085399, 4.782369)">
                        <path d="M10.4595041,14.6402204 C10.4595041,14.6402204 8.16088154,14.8639118 1.38071625,13.0898072 C4.14986226,18.4815427 6.7338843,18.7746556 8.66225895,18.7746556 C10.2512397,18.7746556 15.2418733,18.7746556 15.2418733,18.7746556 C15.2418733,18.7746556 17.4247934,17.5867769 19.4997245,16.3294766 L10.4595041,14.6402204 Z" fill="#FFFFFF"></path>
                        <path d="M8.66225895,18.5895348 C7.8292011,18.5895348 6.66446281,18.5972452 5.50743802,17.8413223 C3.49421488,16.5300275 2.83085399,15.4964187 1.6815427,13.3289256 C6.84958678,14.6556474 9.32561983,14.8022039 10.1663912,14.8022039 C10.3206612,14.8022039 10.4132231,14.7944904 10.4517906,14.7944904 L19.3763085,16.2446281 C17.5482094,17.3399449 15.3884298,18.4584022 15.1415978,18.5895348 L8.66225895,18.5895348 Z" fill="url(#linearGradient-4)"></path>
                        <path d="M6.10909091,12.5344353 C6.10909091,12.5344353 4.99834711,11.246281 4.61267218,10.2666667 L17.1856749,12.5344353 L20.4099174,10.0969697 C20.4022039,8.09146006 20.3944904,6.1785124 20.3944904,6.1785124 L4.61267218,6.1785124 C4.61267218,6.1785124 5.16804408,4.58181818 6.1785124,3.9415978 L17.6947658,6.09366391 L20.4099174,3.77190083 C20.3019284,1.58898072 19.2528926,0.254545455 19.2528926,0.254545455 L12.9586777,0.254545455 C8.53112948,0.254545455 7.09641873,0.254545455 7.09641873,0.254545455 C6.03195592,0.254545455 3.86446281,0.485950413 2.2369146,2.31404959 C0.601652893,4.14214876 -0.848484848,8.20716253 0.717355372,12.0022039 C2.30633609,15.8512397 4.37355372,16.3449036 5.53829201,16.3449036 C7.69035813,16.3449036 19.507438,16.3449036 19.507438,16.3449036 C19.5305785,16.2909091 19.553719,16.2369146 19.569146,16.1674931 C19.9085399,15.0336088 20.1939394,12.5421488 20.1939394,12.5421488 L17.1856749,12.5421488 L6.10909091,12.5421488 L6.10909091,12.5344353 Z" fill="#FFFFFF"></path>
                        <path d="M9.47217631,1.53498623 C9.47217631,1.53498623 4.93663912,2.42203857 4.71294766,2.53002755 C4.4892562,2.63801653 3.60991736,6.62589532 3.60991736,6.62589532 L16.7922865,6.62589532 L20.1707989,3.76418733 L9.47217631,1.53498623 Z" fill="url(#linearGradient-5)"></path>
                        <path d="M9.55702479,7.8600551 C9.55702479,7.8600551 5.0214876,8.74710744 4.79779614,8.85509642 C4.57410468,8.9630854 3.68705234,12.9509642 3.68705234,12.9509642 L16.3834711,12.9509642 L20.2633609,10.0198347 L9.55702479,7.8600551 Z" fill="url(#linearGradient-6)"></path>
                        <path d="M20.4099174,10.0892562 L4.62038567,10.0892562 C5.00606061,11.0688705 6.11680441,12.3570248 6.11680441,12.3570248 L20.2016529,12.3570248 C20.2016529,12.3570248 19.9239669,15.1338843 19.5614325,16.1597796 C19.5614325,16.1597796 6.34049587,16.1597796 5.95482094,16.1597796 C4.21928375,16.1597796 2.35261708,15.5812672 0.725068871,11.8170799 C-0.910192837,8.05289256 0.61707989,3.95702479 2.2446281,2.12892562 C3.87988981,0.300826446 6.04738292,0.0694214876 7.10413223,0.0694214876 C7.10413223,0.0694214876 8.54655647,0.0694214876 12.9663912,0.0694214876 L19.2528926,0.0694214876 C19.2528926,0.0694214876 20.3019284,1.51955923 20.3944904,3.76418733 L6.1862259,3.76418733 C5.18347107,4.39669421 4.62038567,6.00110193 4.62038567,6.00110193 L20.4022039,6.00110193 C20.4099174,6.00110193 20.5641873,8.16859504 20.4099174,10.0892562 Z" fill="url(#linearGradient-7)"></path>
                    </g>
                </g>
                <path d="M21.0501377,3.9415978 C21.0501377,3.9415978 15.5581267,1.76639118 10.6060606,4.56639118 C6.25564738,7.01928375 1.33443526,10.9454545 4.99063361,19.0060606 C1.6815427,14.2931129 1.65068871,10.4595041 4.24242424,6.44077135 C6.7030303,2.64573003 13.922865,-0.809917355 21.0501377,3.9415978 Z" id="Path" fill="url(#linearGradient-8)"></path>
            </g>
            <path d="M13.984573,0 C6.44077135,0 0.0385674931,6.04738292 1.01318693e-15,13.984573 C-0.00771349862,15.3421488 0.185123967,16.6688705 0.532231405,17.8953168 C0.532231405,17.8953168 0.524517906,17.7564738 0.516804408,17.5173554 C0.470523416,16.0517906 0.663360882,10.6677686 3.40936639,11.138292 C6.1553719,11.6088154 10.1818182,12.4187328 14.9410468,11.107438 C19.7002755,9.79614325 23.4953168,5.34545455 21.0501377,1.91294766 C21.0501377,1.91294766 18.1884298,0 13.984573,0 Z" id="Path" fill="url(#linearGradient-9)" opacity="0.4"></path>
            <path d="M11.7013774,4.92892562 C12.0407713,5.80055096 10.8760331,6.83415978 9.41818182,7.15041322 C7.96033058,7.46666667 6.48705234,6.98842975 6.23250689,6.09366391 C5.82369146,4.67438017 7.24297521,4.16528926 8.70082645,3.84903581 C10.1586777,3.54049587 11.014876,3.18567493 11.7013774,4.92892562 Z" id="Path" fill="#FFFFFF"></path>
        </g>
    </g>
</svg>