<svg xmlns="http://www.w3.org/2000/svg" xmlns:xlink="http://www.w3.org/1999/xlink" width="40" height="30" viewBox="0 0 40 30">
    <defs>
        <path id="a" d="M0 0h24v18H0z"/>
        <linearGradient id="b" x1="0%" y1="0%" y2="100%">
            <stop offset="0%" stop-color="#FBB24E"/>
            <stop offset="100%" stop-color="#FAA831"/>
        </linearGradient>
    </defs>
    <g fill="none" fill-rule="evenodd">
        <g transform="translate(16 1)">
            <use fill="#FFF" xlink:href="#a"/>
            <path stroke="#C6C6C6" d="M.5.5h23v17H.5z"/>
        </g>
        <path fill="#BC002D" d="M28 5a5 5 0 1 1 0 10 5 5 0 0 1 0-10"/>
        <g>
            <path d="M-1 2h28v28H-1z"/>
            <path fill="url(#b)" fill-rule="nonzero" d="M13 0C5.82 0 0 5.82 0 13s5.82 13 13 13 13-5.82 13-13S20.18 0 13 0z" transform="translate(0 3)"/>
            <path fill="#FFF" d="M15.301 20.757c-.427.146-1.24.199-2.005.122-.766-.078-1.891-.301-1.891-.301l.644-3.649s1.091.135 1.924.339c.833.204 1.503.544 1.793.759.29.215.785.663.638 1.498-.147.835-.676 1.086-1.103 1.232m-2.954-5.522l.579-3.284s.55.048 1.081.15c.532.101.998.2 1.66.538.661.338.982.936.889 1.559-.094.623-.437.989-.961 1.167-.523.178-1.208.205-1.832.12-.625-.086-1.415-.25-1.416-.25m6.81 2.25c-.503-.54-1.299-.86-1.299-.86s.771-.283 1.129-.638c.357-.355.611-.958.692-1.279.082-.322.379-1.68-.548-2.655-.717-.754-1.619-1.162-2.873-1.465l.486-2.76-1.701-.3-.481 2.728-1.296-.229.481-2.728L12.045 7l-.481 2.727-3.347-.59-.312 1.766.984.174c.268.047.74.161.903.424.163.262.177.388.1.829L8.65 19.371c-.029.167-.098.368-.265.478-.166.11-.314.116-.657.056l-1.017-.179L6 21.708l3.348.59-.48 2.719 1.702.301.48-2.72 1.295.228-.479 2.72 1.702.3.487-2.764c.444.051.86.091 1.105.101.496.023 1.616.089 2.768-.446 1.152-.535 1.58-1.615 1.803-2.741.223-1.124-.071-1.971-.574-2.511"/>
        </g>
    </g>
</svg>
