<?xml version="1.0" encoding="UTF-8"?>
<svg width="32px" height="32px" viewBox="0 0 32 32" version="1.1" xmlns="http://www.w3.org/2000/svg" xmlns:xlink="http://www.w3.org/1999/xlink">
    <!-- Generator: Sketch 63.1 (92452) - https://sketch.com -->
    <title>coin/OMG/light</title>
    <desc>Created with Sketch.</desc>
    <defs>
        <polygon id="path-1" points="4.97777778e-05 0 28 0 28 28 4.97777778e-05 28"></polygon>
    </defs>
    <g id="coin/OMG/light" stroke="none" stroke-width="1" fill="none" fill-rule="evenodd">
        <g id="Group" transform="translate(2.000000, 2.000000)">
            <g id="Group-11">
                <g id="Group-3">
                    <mask id="mask-2" fill="white">
                        <use xlink:href="#path-1"></use>
                    </mask>
                    <g id="Clip-2"></g>
                    <path d="M28.0000498,13.9999876 C28.0000498,21.7319698 21.732032,28.000112 14.0000498,28.000112 C6.26806756,28.000112 4.97777778e-05,21.7319698 4.97777778e-05,13.9999876 C4.97777778e-05,6.26800533 6.26806756,-1.24444444e-05 14.0000498,-1.24444444e-05 C21.732032,-1.24444444e-05 28.0000498,6.26800533 28.0000498,13.9999876" id="Fill-1" fill="#FFFFFF" mask="url(#mask-2)"></path>
                </g>
                <g id="Group-10" transform="translate(4.106667, 10.702222)" fill="#101010">
                    <path d="M5.09194311,3.30219556 C5.09194311,2.07542222 4.36829867,1.15764444 3.15919644,1.15764444 C1.95009422,1.15764444 1.22632533,2.07542222 1.22632533,3.30219556 C1.22632533,4.52884444 1.95009422,5.43791111 3.15919644,5.43791111 C4.36829867,5.43791111 5.09194311,4.52884444 5.09194311,3.30219556 M6.25686756,3.30219556 C6.25686756,5.12020444 5.05672533,6.54111111 3.15919644,6.54111111 C1.26166756,6.54111111 0.0614008889,5.12020444 0.0614008889,3.30219556 C0.0614008889,1.48406222 1.26166756,0.05432 3.15919644,0.05432 C5.05672533,0.05432 6.25686756,1.48406222 6.25686756,3.30219556" id="Fill-4"></path>
                    <polygon id="Fill-6" points="13.3000498 6.38232 12.2233564 6.38232 12.2233564 2.03136889 10.6346987 6.38232 9.60218311 6.38232 8.01352533 2.03136889 8.01352533 6.38232 6.96321422 6.38232 6.96321422 0.2044 8.41946311 0.2044 10.1316942 4.92607111 11.8438009 0.2044 13.3000498 0.2044"></polygon>
                    <path d="M19.7253404,3.07275733 L19.7253404,6.38235733 L18.6574827,6.38235733 L18.6574827,5.676384 C18.4280071,6.07336178 17.8631538,6.54114844 16.8483093,6.54114844 C15.1182827,6.54114844 14.0063716,5.164544 14.0063716,3.34628622 C14.0063716,1.65185067 14.9683271,0.0631928889 17.0334827,0.0631928889 C18.4897316,0.0631928889 19.5665493,0.848686222 19.7253404,2.26075733 L18.551456,2.26075733 C18.480896,1.56361956 17.8191004,1.13988622 16.9982649,1.13988622 C15.7451093,1.13988622 15.1537493,2.11951289 15.1537493,3.31106844 C15.1537493,4.58189511 15.8243804,5.46445511 17.0247716,5.46445511 C17.8631538,5.46445511 18.5162382,5.04072178 18.6221404,4.14061511 L16.8483093,4.14061511 L16.8483093,3.07275733 L19.7253404,3.07275733 Z" id="Fill-8"></path>
                </g>
            </g>
            <circle id="Oval" stroke="#101010" cx="14" cy="14" r="14"></circle>
        </g>
    </g>
</svg>