<?xml version="1.0" encoding="UTF-8"?>
<svg width="32px" height="32px" viewBox="0 0 32 32" version="1.1" xmlns="http://www.w3.org/2000/svg" xmlns:xlink="http://www.w3.org/1999/xlink">
    <title>coin/XTZ</title>
    <g id="coin/XTZ" stroke="none" stroke-width="1" fill="none" fill-rule="evenodd">
        <g id="tezos-1" transform="translate(2.000000, 2.000000)" fill-rule="nonzero">
            <path d="M13.9981692,28 C21.7240748,28 27.9963384,21.7277364 27.9963384,14.0018308 C27.9963384,6.2759252 21.7277364,0 13.9981692,0 C6.26860207,0 0,6.27226363 0,13.9981692 C0,21.7240748 6.27226363,28 13.9981692,28" id="Path" fill="#2C7DF7"></path>
            <path d="M16.0559697,24.3091408 C14.5840199,24.3091408 13.5111809,23.9649536 12.8374526,23.2546097 C12.1637243,22.5442657 11.8378449,21.8009677 11.8378449,20.9807768 C11.8378449,20.691513 11.8927684,20.4352033 12.0209232,20.2338172 C12.1307702,20.032431 12.2918792,19.8713221 12.4932653,19.7614751 C12.6946515,19.6516281 12.9472996,19.5783968 13.2402249,19.5783968 C13.5331503,19.5783968 13.7857984,19.6333203 13.9871845,19.7614751 C14.1885707,19.8713221 14.3496796,20.032431 14.4595266,20.2338172 C14.5693736,20.4352033 14.6426049,20.6878514 14.6426049,20.9807768 C14.6426049,21.3432719 14.5510658,21.6361972 14.3862953,21.8522296 C14.2215248,22.0719236 14.0054923,22.2330326 13.7674905,22.3062639 C13.9688767,22.5772198 14.2947561,22.778606 14.7304825,22.9067608 C15.166209,23.0349157 15.6019354,23.0898392 16.0413234,23.0898392 C16.6601282,23.0898392 17.2057016,22.9250687 17.6963515,22.5991892 C18.1870014,22.2733098 18.5494965,21.7826599 18.7874984,21.1455473 C19.0255002,20.5084347 19.1316856,19.7834445 19.1316856,18.9632536 C19.1316856,18.0734929 19.0035308,17.3265333 18.7508827,16.7077285 C18.494573,16.0706159 18.1320779,15.5982738 17.641428,15.3090101 C17.1507781,15.0014385 16.6235125,14.8549758 16.0413234,14.8549758 C15.6605205,14.8549758 15.2064862,15.0197463 14.6426049,15.3273179 L13.6173663,15.8179678 L13.6173663,15.3090101 L18.2529096,9.1282856 L11.8378449,9.1282856 L11.8378449,15.5470119 C11.8378449,16.0742775 11.9476919,16.5100039 12.1820322,16.8578528 C12.420034,17.20204 12.7825291,17.3668105 13.2548712,17.3668105 C13.6356741,17.3668105 13.983523,17.2386557 14.3277102,16.9860076 C14.6718975,16.7296979 14.9648228,16.4221263 15.2174709,16.0779391 C15.2540866,16.0047077 15.2907022,15.9497842 15.3273179,15.9314764 C15.3822414,15.8948607 15.4188571,15.8765529 15.4737806,15.8765529 C15.5653197,15.8765529 15.6568589,15.9131686 15.7813522,16.0047077 C15.8911992,16.1328626 15.9461227,16.2756637 15.9461227,16.4404342 C15.9461227,16.5136655 15.909507,16.6235125 15.8911992,16.7663136 C15.6348895,17.3668105 15.2723944,17.8208448 14.8000523,18.1284164 C14.3277102,18.435988 13.8187525,18.6007585 13.2548712,18.6007585 C11.8561527,18.6007585 10.907807,18.3298025 10.3622336,17.7842291 C9.83496796,17.2386557 9.56401203,16.4916961 9.56401203,15.5653197 L9.56401203,9.1282856 L6.29057147,9.1282856 L6.29057147,7.92729175 L9.58231986,7.92729175 L9.58231986,5.19942461 L8.83536027,4.45246502 L8.83536027,3.83366026 L11.017654,3.83366026 L11.8341833,4.25107885 L11.8341833,7.90898392 L20.3253563,7.89067608 L21.1601935,8.72551327 L15.9644305,13.9469073 C16.2720021,13.8187525 16.6015431,13.7455211 16.9457304,13.7089055 C17.5096116,13.7089055 18.1467242,13.8919838 18.8350987,14.2544789 C19.5454427,14.5986661 20.0910161,15.0893161 20.471819,15.7081208 C20.8526219,16.3269256 21.1089316,16.9091147 21.2187786,17.4729959 C21.3286256,18.0368772 21.4018569,18.5275271 21.4018569,18.9815614 C21.4018569,19.9811691 21.1821629,20.9075454 20.7647443,21.764352 C20.3473257,22.6174971 19.7102132,23.2729175 18.8387603,23.6903361 C17.9819537,24.1077547 17.0555774,24.3091408 16.0559697,24.3091408 Z" id="Path" fill="#FFFFFF"></path>
        </g>
    </g>
</svg>