<svg height="32" viewBox="0 0 32 32" width="32" xmlns="http://www.w3.org/2000/svg"><g fill="none" fill-rule="evenodd"><path d="m14.0224 27.952-.16-.08c-6.2464-3.6608-10.9728-9.6928-12.8928-16.9024-.3072-1.1328-.5344-2.2944-.6944-3.472-.1472-1.1712-.2272-2.3616-.2432-3.5488 0-.2016-.0256-.1728.16-.2688 2.3488-1.3344 4.832-2.3104 7.4624-2.9216.976-.2272 1.9488-.4 2.9376-.5216 1.36-.16 2.7232-.2272 4.0992-.2016.7744.0128 1.536.0672 2.2944.1472 3.8304.4128 7.424 1.5616 10.7872 3.4432.0544.0256.0928.0544.1472.08s.08.0672.08.1344v.2016c-.0128.6944-.0416 1.376-.0928 2.0704-.08.9888-.2144 1.9616-.4 2.9376-.4 2.096-1.0272 4.112-1.8944 6.048-1.376 3.0848-3.2576 5.8336-5.6352 8.2368-1.7088 1.7344-3.6192 3.232-5.728 4.4704-.08.0544-.1472.0928-.2272.1472z" fill="#fff" transform="translate(2 2.000896)"/><path d="m.032 3.4208c1.7088-.9888 3.4976-1.7632 5.3792-2.3232 2.5632-.7616 5.1648-1.12 7.8368-1.0688 1.2416.0256 3.3088.2272 3.6576.3616.0128.0256-.0128.0416-.0416.0416-.1184.0544-.2528.0928-.3744.1472-2.2016.9216-3.7632 2.8576-4.2176 5.2064-.0672.3872-.1056.7744-.1184 1.1616-.0128.5888-.0672 1.1744-.24 1.7472-.5888 2.0704-2.2816 3.6832-4.3776 4.1664-2.752.624-5.5296-.736-6.7296-3.2864-.0672-.1472-.1184-.2944-.1472-.4416-.2016-.8672-.3456-1.7344-.4544-2.6176-.1184-.9728-.1856-1.9488-.1856-2.9216.0128-.0672.0128-.1056.0128-.1728z" fill="#f7a800" transform="translate(3.294496 3.196928)"/><path d="m6.4256 18.2944c.0256-.2528.0544-.48.0672-.72.0672-1.3216-.2144-2.576-.8416-3.7376-.6016-1.1072-1.4432-1.9904-2.5216-2.656-.0928-.0672-.2016-.1184-.2944-.1856-1.4816-.9344-2.3904-2.256-2.7104-3.9776-.5728-3.0976 1.376-6.0864 4.432-6.8224 1.0816-.2528 2.1344-.2272 3.1904.1056.8672.2688 1.696.6272 2.5216 1.0144.5728.2688 1.12.56 1.6704.8672.0672.0416.1184.0672.2016.1184 0 .0544.0128.0928.0128.1472 0 .7072-.0416 1.4272-.0928 2.1344-.0928 1.04-.2528 2.0832-.4672 3.0976-.656 3.0176-1.8144 5.808-3.4976 8.3968-.4672.72-.9728 1.4144-1.5072 2.0832-.0544.0416-.0832.0928-.1632.1344z" fill="#67b2e8" transform="translate(16.549536 4.325792)"/><path d="m11.0208 13.008c-.2016-.08-.8128-.4544-1.4688-.8928-1.456-.9728-2.8032-2.096-4.032-3.3504-1.2256-1.2576-2.32-2.6304-3.2576-4.112-.88-1.376-1.6128-2.816-2.2016-4.3392-.0128-.0416-.0256-.0672-.0416-.1344.0672.0416.0928.0544.1344.08.4672.3616.96.6688 1.4944.8928.6816.2944 1.3888.496 2.1344.56 1.5072.1472 2.9216-.16 4.2592-.9088.6944-.3872 1.4432-.64 2.2304-.7488 2.7904-.3456 5.568 1.3088 6.4352 4.192.4416 1.4816.3072 2.9216-.3744 4.3264-.0928.1856-.1728.3616-.2688.5344-.0544.1056-.1184.2144-.2144.2944-1.4112 1.3376-2.96 2.512-4.64 3.5008-.0672.0384-.1344.08-.1888.1056z" fill="#00c4b3" transform="translate(4.989536 15.585504)"/></g></svg>