<svg xmlns="http://www.w3.org/2000/svg" xmlns:xlink="http://www.w3.org/1999/xlink" width="40" height="30" viewBox="0 0 40 30">
    <defs>
        <path id="a" d="M0 0h24v18H0z"/>
    </defs>
    <g fill="none" fill-rule="evenodd">
        <g transform="translate(16 1)">
            <use fill="#FFF" xlink:href="#a"/>
            <path stroke="#C6C6C6" d="M.5.5h23v17H.5z"/>
        </g>
        <path fill="#BC002D" d="M28 5a5 5 0 1 1 0 10 5 5 0 0 1 0-10"/>
        <g>
            <path d="M-1 2h28v28H-1z"/>
            <g fill-rule="nonzero" transform="translate(0 3)">
                <circle cx="13" cy="13" r="13" fill="#4F4F4F"/>
                <path fill="#FFF" d="M13 24.57C6.61 24.57 1.43 19.39 1.43 13 1.43 6.61 6.61 1.43 13 1.43c6.39 0 11.57 5.18 11.57 11.57-.008 6.387-5.183 11.562-11.57 11.57z"/>
                <path fill="#D7D8D9" d="M4.273 16.175c.114.317.245.627.393.93l17.352-6.322a9.175 9.175 0 0 0-.684-1.878L3.982 15.217c.08.324.177.644.29.958zM3.715 13.034l16.421-5.976a9.26 9.26 0 0 0-1.632-1.533L3.98 10.811a9.263 9.263 0 0 0-.264 2.223zM5.108 8.118l10.8-3.93a9.257 9.257 0 0 0-10.8 3.93zM7.499 20.475l14.522-5.286a9.262 9.262 0 0 0 .267-2.223l-16.42 5.976a9.26 9.26 0 0 0 1.63 1.533zM16.175 21.727a9.237 9.237 0 0 0 4.717-3.845l-10.8 3.93a9.237 9.237 0 0 0 6.083-.085z"/>
                <path fill="#5E5E5E" d="M16.206 5.573h-5.617l-.141.53-1.577 6.028-.756.267-.35.123-.098.352-.572 2.002-.38 1.334 1.198-.428-.61 2.323-.232.897h11.687l.14-.53.715-2.642.243-.9h-6.1l.352-1.34.77-.274.346-.123.102-.353.572-2.001.38-1.33-1.215.43.91-3.472.233-.893z"/>
                <path fill="#FFF" d="M15.282 6.284L14.03 11.06l1.18-.417-.571 2.001-1.126.397-.68 2.603h6.092l-.715 2.642H7.995l.951-3.627-1.163.41.571-1.997 1.112-.394 1.673-6.394h4.143"/>
            </g>
        </g>
    </g>
</svg>
