<?xml version="1.0" encoding="UTF-8"?>
<svg width="32px" height="32px" viewBox="0 0 32 32" version="1.1" xmlns="http://www.w3.org/2000/svg" xmlns:xlink="http://www.w3.org/1999/xlink">
    <!-- Generator: Sketch 59.1 (86144) - https://sketch.com -->
    <title>coin/XLM</title>
    <desc>Created with Sketch.</desc>
    <g id="coin/XLM" stroke="none" stroke-width="1" fill="none" fill-rule="evenodd">
        <g id="Group-02">
            <polygon id="Path-3" fill="#FFFFFF" points="1.2027851 21.2453438 1.2027851 25.5399759 30.7237244 10.19841 30.7237244 5.61531067"></polygon>
            <path d="M6.71800993,16.7551455 L22.4337242,8.74754905 L25.7954963,7.03458703 L25.795516,7.034577 L30.3248608,4.72700361 L30.3248608,8.03543269 L26.1310549,10.1722808 L24.2076265,11.1523657 L7.09304346,19.8770673 L6.13850548,20.3633833 L5.16979395,20.852692 L1.6,22.6715325 L1.6,19.3628749 L1.81836633,19.2515827 L2.83380523,18.7340563 C3.46188423,18.4142039 3.83602207,17.7479221 3.78300285,17.0440463 C3.75974199,16.7351665 3.74808439,16.4254161 3.74808439,16.1145823 C3.74808439,14.4666049 4.07126536,12.8661731 4.70841853,11.3595306 C5.32357852,9.905394 6.20433402,8.59903894 7.32544273,7.47756383 C8.44675713,6.35637155 9.7533427,5.47554359 11.2075844,4.86058337 C12.7138909,4.22320592 14.3142016,3.9 15.9624304,3.9 C17.6106879,3.9 19.2107661,4.22317138 20.7171887,4.86054629 C21.5757143,5.22358138 22.3851656,5.68132631 23.1373183,6.22831307 L23.6648848,6.61197431 L23.0836998,6.90819428 L22.7969001,7.0543711 L20.680947,8.13234625 L20.4941922,8.02729764 C19.0975129,7.24167265 17.5211252,6.83614247 15.8905402,6.84830933 C13.4552395,6.86665221 11.1332456,7.83918115 9.41020136,9.56199883 C7.65941136,11.3127888 6.69605063,13.6385474 6.69605063,16.1145823 C6.69605063,16.328468 6.70339552,16.5421099 6.71800993,16.7551455 Z" id="Fill-1" stroke="#FFFFFF" stroke-width="0.8" fill="#000000"></path>
            <path d="M25.2062745,14.8640115 L9.47411565,22.8801236 L6.1121322,24.5929548 L1.60012996,26.8920849 L1.60012996,23.5834995 L1.81851789,23.4722131 L5.7765861,21.4552547 L7.7000685,20.4752604 L30.3248726,8.94725701 L30.3248726,12.2560718 L30.1064714,12.3673548 L29.090423,12.885067 C28.4621048,13.2051844 28.0878736,13.8718288 28.1412614,14.5755857 C28.1649064,14.887136 28.1767882,15.2000337 28.1767882,15.5133165 C28.1767882,17.1610883 27.8535953,18.7615175 27.2164493,20.2681429 C26.6011575,21.722469 25.7202919,23.0291105 24.5994144,24.1502322 C23.4783211,25.2710812 22.1716667,26.1519349 20.7172121,26.7672294 C19.2106432,27.4043514 17.610214,27.7275443 15.9624422,27.7275443 C14.3145498,27.7275443 12.714465,27.4043961 11.2078205,26.7672421 C10.3459402,26.4028393 9.53389337,25.9431162 8.77931402,25.3932059 L8.25261905,25.0093696 L8.83332183,24.7135281 L10.92004,23.6504407 L11.234738,23.4899296 L11.4217298,23.5953821 C12.8188346,24.3832676 14.3965909,24.7906226 16.0284143,24.7794696 C18.4658873,24.7624838 20.7905383,23.7896735 22.5146712,22.0654273 C24.2654079,20.3146906 25.2288219,17.9890234 25.2288219,15.5133165 C25.2288219,15.2967351 25.2212764,15.0802248 25.2062745,14.8640115 Z" id="Fill-4" stroke="#FFFFFF" stroke-width="0.8" fill="#000000"></path>
        </g>
    </g>
</svg>