<svg height="32" viewBox="0 0 42 32" width="42" xmlns="http://www.w3.org/2000/svg" xmlns:xlink="http://www.w3.org/1999/xlink"><mask id="a" fill="#fff"><path d="m0 .77427285h26v12.99999995h-26z" fill="#fff" fill-rule="evenodd"/></mask><mask id="b" fill="#fff"><path d="m.8548.32932425h25v24.99999995h-25z" fill="#fff" fill-rule="evenodd"/></mask><g fill="none" fill-rule="evenodd"><g fill-rule="nonzero" transform="translate(17 2)"><path d="m0 0h24v18h-24z" fill="#c6c6c6"/><path d="m1 1h22v16h-22z" fill="#fff"/><path d="m12 4c2.7614583 0 5 2.2375 5 5 0 2.7604167-2.2385417 5-5 5-2.76145833 0-5-2.2395833-5-5 0-2.7625 2.23854167-5 5-5" fill="#bc002d"/></g><g fill="#000"><g transform="translate(0 17.773238)"><path d="m19.2343084 11.5738933c-.090885-.0925876-.090885-.0925876-.1802052-.1841148-.0197581-.0202531-.0197581-.0202531-.0394526-.0404412-.2024653-.2075291-.3057308-.3120706-.425489-.4292972-.3205653-.3144283-.5878269-.577412-1.1456554-1.12692721-.0238263-.0234712-.0238263-.0234712-.0476512-.04694108-1.5849092-1.56128918-2.3124589-2.27200001-3.2150785-3.13219584-.748303-.71220675-1.6388266-.98234947-2.6975013-.81905657-.6763718.10473362-1.2565723.40777135-1.77844043.92054851-.80914591.79408948-1.48339788 1.45391511-2.90179427 2.84058435-.06047028.05911761-.06047028.05911761-.12093953.11823424-.8677635.8483537-1.30512402 1.2761092-1.81705254 1.7773398.01166936-.0112674.01043836-.0097857-.00327043.0079878-.02074591.0269646-.02074591.0269646-.05354929.0674576l-.22491824.2707283h-5.41903819l1.31059646-1.2853885.00006729-.000066c.33610987-.3296452.68772227-.67430269 1.08661988-1.06515507.54342455-.53240824.54342455-.53240824 1.08666568-1.06452587.2753413-.27017771.56468923-.55424411 1.12969112-1.10896946.72597115-.71269282 1.20614411-1.18357309 1.69726882-1.66407978.11762355-.11504055.2103815-.20612724.42134651-.41357621.00822882-.00809199.00822882-.00809199.01645908-.01618539.68567359-.67427109 1.00051293-.9795482 1.39891484-1.3500898.74622522-.69444633 1.63255425-1.19117166 2.64559266-1.49692022.74056618-.22442319 1.47389918-.32978301 2.20192558-.30503881 1.6563676.05633838 3.1057079.58247056 4.2951651 1.60849593.3942142.34008863.6946488.6279309 1.3375645 1.26601868.0086434.00857847.0086434.00857847.0172821.01715239.1996094.19811006.2957094.29311075.4096304.40446989.7882376.76894845 1.4178886 1.38479068 2.8338372 2.77088748.707742.69282104 1.0223108 1.00069115 1.4159478 1.38569559.1951383.19109938.3513735.34369919.7030601.68690135.1760393.1717923.1760393.1717923.3522355.3438383l1.3171842 1.2865355h-5.3866474z" mask="url(#a)" stroke="#fff" stroke-width="1.5"/><path d="m19.7688417 11.1478-.0712711-.0298542c-.0893499-.0910234-.0893499-.0910234-.1782117-.1820804-.0197291-.0202234-.0197291-.0202234-.0394476-.0404362-.2058338-.2109818-.3116614-.318117-.4355936-.4394289-.3201255-.3139969-.5871539-.57675113-1.1446555-1.12594432-.0238257-.02347067-.0238257-.02347067-.0476512-.04694111-1.587446-1.56378813-2.3167395-2.27620242-3.2231114-3.13997395-.8959021-.85268612-1.9890628-1.18429936-3.245089-.99056627-.8146682.12614829-1.51809354.49354613-2.13425874 1.0989779-.80875431.79370515-1.48279911 1.45332806-2.9009031 2.83971143-.06046988.05911721-.06046988.05911721-.12093971.11823441-.86788022.84846781-1.3053278 1.27630841-1.81415648 1.77452611-.01874656.0181008-.03338723.0357234-.06646322.0786064-.0183902.0238519-.0183902.0238519-.11574768.0851691h-3.23125l-.07002075-.1713939c.33602904-.3295659.68756982-.6741532 1.08639862-1.06493817.54336355-.53234848.54336355-.53234848 1.08700056-1.06485424.2754103-.27024542.56482856-.55438087 1.12980051-1.10907682.72572911-.71245521 1.20567911-1.18311684 1.69639971-1.66322816.11817827-.1155831.21141614-.20714106.42260732-.4148127.00822948-.00809263.00822948-.00809263.01645917-.01618548.68139719-.6700658.9933081-.97250343 1.38597956-1.33771534.67174741-.62513637 1.47049751-1.07277984 2.39129013-1.35068778.6747781-.20448658 1.3374925-.29970044 1.9913179-.27747819 1.5134098.05147593 2.8200795.52581657 3.892672 1.45103438.3789871.32695227.6720335.60771601 1.3042695 1.23520426.0086416.00857677.0086416.00857677.0172826.01715287.2007558.19924787.2976792.29506261.4136226.40839817.7878792.76859877 1.4173512 1.38426592 2.8330314 2.77009999.7078091.69288672 1.0224226 1.00080062 1.4158566 1.38560633.1954999.19145348.3519164.34423048.7038747.68769758.1760052.1717591.1760052.1717591.3520314.3436391l-.0698735.1715381z" mask="url(#a)" stroke="#000" stroke-width=".2"/></g><g transform="translate(-1 6.725619)"><path d="m5.87078381 3.64920981c.11047294.11067613.19828199.19903742.39518516.39747545.00307253.00309653.00307253.00309653.00614482.00619281.43494568.43834258.63077137.63424581.87510442.87335776l.00019313.00018926c.1516058.14862209.1516058.14862209.30319661.2972311 1.59180881 1.56047321 2.39925669 2.34897113 3.33911595 3.25712436.5391632.5203681 1.1736722.80680662 1.9244707.86685221 1.0216294.08093141 1.8707097-.24432892 2.6301874-.9954824.8510691-.84100978 1.5815556-1.55635209 3.047769-2.98746786.1016818-.09924698.1016818-.09924698.2033528-.19848328.6589696-.64319537 1.0205569-.99641263 1.4196102-1.38702697.0010861-.00107194.008242-.00915901.0295222-.03438584.0017191-.00203807.0017191-.00203807.003501-.00415064.0216666-.02569554.0216666-.02569554.0515806-.05992166l.2237519-.25166173h5.2060277l-1.1151571 1.24941428c-.0392413.04441141-.0392413.04441141-.0828632.09481726-.0023615.00273024-.0023615.00273024-.0047364.00547583-.113965.13175363-.1707916.19484987-.2527087.27569918-1.1817449 1.16006827-2.3645172 2.31933829-3.5502828 3.47973988-.2108716.20627099-.3852847.37790444-.7553378.74281798-.0117245.01156169-.0117245.01156169-.0234503.02312473-.9853169.97163228-1.4374133 1.41140428-2.0083053 1.94476418-1.0070064.9411355-2.2175301 1.526999-3.5954113 1.7420006-1.3515111.2113202-2.6520778.061014-3.8944685-.4590946-.87286563-.3656384-1.6310238-.9181503-2.43031645-1.7093007-1.0456578-1.03429019-1.95353819-1.92410688-3.74416475-3.67321315-.1605805-.15685496-.1605805-.15685496-.32117133-.31372062-.47350349-.46252675-.77466481-.75682327-1.08791632-1.06320637-.11109128-.1090308-.19418004-.1902203-.38977513-.38102187-.04898196-.04776805-.04898196-.04776805-.09802493-.09559477-.22400044-.21845561-.35238023-.34398951-.49270971-.48210742-.08058545-.07953889-.11439847-.13053128-.16894616-.22570137-.0000979-.00017081-.0000979-.00017081-.00019435-.00033909-.00596833-.010225-.00596833-.010225.00221677.00298945l-.74927244-1.15754341h4.8845294z" mask="url(#b)" stroke="#fff" stroke-width="1.5"/><path d="m6.55242287 5.5334578c-.00000584-.00000573-.00001168-.00001145-.00001752-.00001718l.00003506.00003433c-.00000584-.00000572-.00001169-.00001144-.00001753-.00001716zm-1.2124562-1.45440542.07077562.02935432c.10986954.11007163.19715383.19790487.39382297.39610672.00307242.0030964.00307242.0030964.0061448.00619278.43718152.44059588.63451787.63801036.88165126.8798627l.00002575.00002524c.15159535.14861186.15159535.14861186.30319285.29722742 1.59289048 1.56153358 2.40114964 2.35082374 3.34274878 3.26065807.6474179.62484896 1.4231345.97503329 2.324535 1.04712315 1.2138229.09615662 2.2472391-.29971795 3.1383972-1.18110876.8498248-.83978012 1.579625-1.55445035 3.0449085-2.98465851.1016778-.09924307.1016778-.09924307.2033527-.19848323.6591819-.64340253 1.0209393-.99678592 1.4221976-1.38956646.0196399-.01938485.0359567-.03782481.0697546-.07789093.001746-.00207005.001746-.00207005.0035003-.00414979.0195722-.02318898.0195722-.02318898.1152421-.08069272h3.1945833l.0746054.16658857c-.0447002.05059324-.0447002.05059324-.089534.10240916-.0023678.00273746-.0023678.00273746-.0047374.00547691-.1028878.11894736-.1519178.17338682-.2164475.23707798-1.1815044 1.15983214-2.3640361 2.31886644-3.5494599 3.47893357-.2116977.20707899-.3865426.37913741-.7572094.74465608-.0117251.01156227-.0117251.01156227-.0234504.02312475-.981178.96755099-1.430437 1.4045629-1.995736 1.9326976-.9114181.8517998-2.0020929 1.3796594-3.2519993 1.5746921-1.2339094.1929322-2.4127902.0566892-3.542918-.4164221-.78609105-.3292891-1.47942253-.8345582-2.22435334-1.5719005-1.04691691-1.03553559-1.95550185-1.92604281-3.74706843-3.6760673-.16058641-.15686074-.16058641-.15686074-.32116999-.31371931-.47341163-.46243703-.77449058-.75665305-1.08681745-1.06213044-.11170283-.109631-.19529801-.19131534-.39124229-.38245727-.04900908-.0477945-.04900908-.0477945-.09803105-.09560074-.2233295-.21780128-.35115345-.34279167-.48992797-.47937822-.02389037-.02358011-.03692493-.04323713-.06161481-.0863139-.00009709-.00016939-.00009709-.00016939-.00019398-.00033844-.00877901-.01528944-.00877901-.01528944-.01605882-.02698938l.08394796-.15433912z" mask="url(#b)" stroke="#000" stroke-width=".2"/></g></g></g></svg>